static_grf.mot
version=1
nRows=25
nColumns 19
inDegrees=yes
endheader
time	1_ground_force_vx	1_ground_force_vy	1_ground_force_vz	1_ground_force_px	1_ground_force_py	1_ground_force_pz	1_ground_torque_x	1_ground_torque_y	1_ground_torque_z	2_ground_force_vx	2_ground_force_vy	2_ground_force_vz	2_ground_force_px	2_ground_force_py	2_ground_force_pz	2_ground_torque_x	2_ground_torque_y	2_ground_torque_z
            1.002500	            1.539823	          245.095007	          -25.458357	           -0.248741	            0.006164	           -0.392308	            0.007817	            1.244177	           -0.129234	           -2.324274	          231.742269	           27.483038	           -0.228598	            0.005737	           -0.719642	            0.008300	           -0.827576	           -0.098145
            1.003000	            1.494370	          245.454743	          -25.273274	           -0.248301	            0.006164	           -0.392231	            0.007166	            1.177098	           -0.121200	           -2.506294	          230.267903	           27.618645	           -0.228710	            0.005734	           -0.719072	            0.009511	           -0.873872	           -0.104813
            1.003500	            1.402537	          245.635188	          -25.318130	           -0.248597	            0.006164	           -0.392292	            0.006909	            1.210094	           -0.124727	           -2.368444	          231.005339	           27.527357	           -0.228640	            0.005734	           -0.719033	            0.009012	           -0.878937	           -0.104737
            1.004000	            1.448868	          245.454145	          -25.135593	           -0.248299	            0.006163	           -0.391978	            0.007115	            1.205302	           -0.123428	           -2.551733	          229.898753	           27.805063	           -0.228946	            0.005733	           -0.719051	            0.009703	           -0.874171	           -0.105726
            1.004500	            1.631555	          246.716826	          -25.314061	           -0.248559	            0.006161	           -0.391456	            0.008133	            1.229909	           -0.126193	           -2.743285	          231.004320	           27.433661	           -0.229012	            0.005736	           -0.719761	            0.009393	           -0.790919	           -0.093928
            1.005000	            1.494825	          245.453957	          -25.089850	           -0.248673	            0.006165	           -0.392504	            0.007383	            1.212251	           -0.123914	           -2.459486	          230.268407	           27.524769	           -0.228798	            0.005734	           -0.719236	            0.009221	           -0.863313	           -0.103195
            1.005500	            1.448656	          245.995138	          -25.179130	           -0.248747	            0.006163	           -0.391914	            0.006790	            1.152933	           -0.118010	           -2.365121	          230.084605	           27.524072	           -0.228490	            0.005735	           -0.718984	            0.008410	           -0.818181	           -0.097876
            1.006000	            1.540327	          245.454556	          -25.227532	           -0.248905	            0.006164	           -0.392144	            0.007405	            1.179964	           -0.121275	           -2.603256	          231.187797	           27.762755	           -0.229130	            0.005735	           -0.719770	            0.009855	           -0.875200	           -0.105101
            1.006500	            1.540456	          245.994959	          -25.133501	           -0.249026	            0.006162	           -0.391827	            0.007397	            1.181186	           -0.120683	           -2.554432	          230.635681	           27.713835	           -0.228803	            0.005734	           -0.719173	            0.009540	           -0.861393	           -0.103507
            1.007000	            1.632043	          246.535774	          -25.131410	           -0.248348	            0.006162	           -0.391678	            0.008089	            1.221978	           -0.124566	           -2.555865	          231.004830	           27.480509	           -0.228239	            0.005738	           -0.719681	            0.009592	           -0.866964	           -0.103135
            1.007500	            1.769931	          245.814345	          -25.043131	           -0.248457	            0.006164	           -0.392213	            0.008619	            1.196988	           -0.121947	           -2.416582	          231.373116	           27.622548	           -0.228657	            0.005736	           -0.719540	            0.008936	           -0.855582	           -0.102144
            1.008000	            1.585909	          245.635223	          -25.318585	           -0.248794	            0.006164	           -0.392135	            0.007828	            1.212462	           -0.124973	           -2.647468	          230.451202	           27.713218	           -0.229042	            0.005734	           -0.719406	            0.009960	           -0.866975	           -0.104259
            1.008500	            1.632453	          244.913186	          -25.092511	           -0.248466	            0.006166	           -0.392729	            0.007865	            1.179895	           -0.120886	           -2.365642	          230.267574	           27.853226	           -0.228779	            0.005735	           -0.719318	            0.009158	           -0.891384	           -0.107822
            1.009000	            1.632369	          245.994584	          -25.042017	           -0.248474	            0.006162	           -0.391810	            0.007877	            1.187111	           -0.120847	           -2.508227	          230.819854	           27.761401	           -0.228319	            0.005737	           -0.719510	            0.009282	           -0.854135	           -0.102729
            1.009500	            1.815238	          245.635071	          -25.273298	           -0.248376	            0.006165	           -0.392353	            0.008904	            1.204857	           -0.123967	           -2.413903	          230.636356	           27.666847	           -0.228719	            0.005736	           -0.719501	            0.009069	           -0.866476	           -0.103941
            1.010000	            1.724055	          245.994602	          -25.042245	           -0.248521	            0.006163	           -0.391960	            0.008548	            1.219644	           -0.124160	           -2.413198	          230.451880	           27.760047	           -0.228620	            0.005735	           -0.719246	            0.009335	           -0.891414	           -0.107379
            1.010500	            1.540195	          246.175618	          -25.224440	           -0.248570	            0.006160	           -0.391287	            0.007145	            1.142045	           -0.117020	           -2.646885	          230.267731	           27.524849	           -0.228876	            0.005734	           -0.719314	            0.010028	           -0.872425	           -0.104285
            1.011000	            1.632046	          245.274308	          -25.228532	           -0.248664	            0.006164	           -0.392320	            0.007956	            1.195739	           -0.122992	           -2.695606	          230.819010	           27.808408	           -0.228964	            0.005735	           -0.719424	            0.010145	           -0.868695	           -0.104658
            1.011500	            1.448249	          246.356259	          -25.315151	           -0.248630	            0.006161	           -0.391508	            0.006986	            1.188344	           -0.122112	           -2.603859	          231.371435	           27.904196	           -0.228417	            0.005739	           -0.720187	            0.009423	           -0.837299	           -0.100981
            1.012000	            1.494205	          246.356072	          -25.269409	           -0.248784	            0.006161	           -0.391576	            0.007098	            1.170311	           -0.120042	           -2.415918	          231.188976	           27.621890	           -0.228465	            0.005736	           -0.719448	            0.009478	           -0.906984	           -0.108364
            1.012500	            1.815124	          245.635268	          -25.319154	           -0.248824	            0.006163	           -0.392053	            0.009060	            1.226067	           -0.126378	           -2.274765	          231.005845	           27.480389	           -0.228460	            0.005737	           -0.719521	            0.009001	           -0.914106	           -0.108742
            1.013000	            1.678035	          245.093854	          -25.183563	           -0.249013	            0.006166	           -0.392715	            0.008799	            1.285166	           -0.132052	           -2.510844	          231.556112	           27.857885	           -0.228803	            0.005738	           -0.720115	            0.009615	           -0.886765	           -0.106684
            1.013500	            1.586281	          246.715834	          -25.084667	           -0.248539	            0.006160	           -0.391268	            0.007245	            1.126863	           -0.114573	           -2.507562	          230.635683	           27.760743	           -0.229197	            0.005734	           -0.719417	            0.009645	           -0.887080	           -0.106774
            1.014000	            1.494600	          244.192884	          -25.278685	           -0.248668	            0.006168	           -0.393169	            0.007442	            1.215971	           -0.125876	           -2.415191	          231.004333	           27.762018	           -0.228823	            0.005736	           -0.719602	            0.008692	           -0.831315	           -0.099907
            1.014500	            1.586448	          244.553039	          -25.185655	           -0.248575	            0.006165	           -0.392565	            0.007579	            1.168317	           -0.120321	           -2.600618	          230.451371	           27.713198	           -0.228959	            0.005735	           -0.719488	            0.009820	           -0.870231	           -0.104651
